# xmcd
#
# Track frame offsets: 
#        150
#        15798
#        29905
#        41795
#        62281
#        88954
#        104775
#        130420
#        163294
#        182186
#        210913
#        230198
#        256110
#        279124
#
# Disc length: 4157 seconds
#
# Revision: 2
# Processed by: cddbd v1.5.2PL0 Copyright (c) Steve Scherf et al.
# Submitted via: ExactAudioCopy v0.99pb5
#
DISCID=c6103b0e
DTITLE=Various Artist - Simply Late Night Jazz CD 1 - Sax At Sundown
DYEAR=2008
DGENRE=Jazz
TTITLE0=Lester Young - I Don't Stand A Ghost Of A Chance
TTITLE1=Art Pepper - Everything Happens To Me
TTITLE2=Stan Getz - Don't Worry 'Bout Me
TTITLE3=John Coltrane - BJ
TTITLE4=David 'Fathead' Newman - One For My Baby (And One More For The
TTITLE4=Road)
TTITLE5=Charlie Parker - How Deep Is The Ocean
TTITLE6=Al Cohn and Zoot Sims - Body And Soul
TTITLE7=Phil Woods - The Summer Knows
TTITLE8=The Brecon Brothers - Take Five
TTITLE9=Cannonball Adderley - Willow Weep For Me
TTITLE10=Houston Person - Daydream
TTITLE11=Ricky Ford - Moon Mist
TTITLE12=Sonny Stitt - Angel Eyes
TTITLE13=James Moody - Morning Glory
EXTD=YEAR: 2008
EXTT0=
EXTT1=
EXTT2=
EXTT3=
EXTT4=
EXTT5=
EXTT6=
EXTT7=
EXTT8=
EXTT9=
EXTT10=
EXTT11=
EXTT12=
EXTT13=
PLAYORDER=
